<mxfile host="app.diagrams.net" modified="2020-12-01T07:20:29.607Z" agent="5.0 (Windows NT 10.0; Win64; x64) AppleWebKit/537.36 (KHTML, like Gecko) Chrome/87.0.4280.66 Safari/537.36" etag="pCpQcOI_vgVjbMeT7uVT" version="13.9.7" type="github">
  <diagram id="973QxGnDrHkEv3KHIxb4" name="Page-1">
    <mxGraphModel dx="1422" dy="762" grid="1" gridSize="10" guides="1" tooltips="1" connect="1" arrows="1" fold="1" page="1" pageScale="1" pageWidth="827" pageHeight="1169" math="0" shadow="0">
      <root>
        <mxCell id="0" />
        <mxCell id="1" parent="0" />
        <mxCell id="spOxDP0OLOX8C8WsIkxp-1" value="&lt;font style=&quot;font-size: 18px&quot;&gt;智能视频监控平台&lt;/font&gt;" style="ellipse;whiteSpace=wrap;html=1;" vertex="1" parent="1">
          <mxGeometry x="280" y="320" width="420" height="140" as="geometry" />
        </mxCell>
        <mxCell id="spOxDP0OLOX8C8WsIkxp-2" style="edgeStyle=orthogonalEdgeStyle;curved=1;orthogonalLoop=1;jettySize=auto;html=1;exitX=1;exitY=0.5;exitDx=0;exitDy=0;entryX=0;entryY=0;entryDx=0;entryDy=0;" edge="1" parent="1" source="spOxDP0OLOX8C8WsIkxp-3" target="spOxDP0OLOX8C8WsIkxp-1">
          <mxGeometry relative="1" as="geometry" />
        </mxCell>
        <mxCell id="spOxDP0OLOX8C8WsIkxp-3" value="&lt;font style=&quot;font-size: 16px&quot;&gt;中心软件&lt;/font&gt;" style="rounded=0;whiteSpace=wrap;html=1;" vertex="1" parent="1">
          <mxGeometry x="50" y="220" width="120" height="60" as="geometry" />
        </mxCell>
        <mxCell id="spOxDP0OLOX8C8WsIkxp-4" style="edgeStyle=orthogonalEdgeStyle;curved=1;orthogonalLoop=1;jettySize=auto;html=1;exitX=1;exitY=0.5;exitDx=0;exitDy=0;entryX=0;entryY=1;entryDx=0;entryDy=0;" edge="1" parent="1" source="spOxDP0OLOX8C8WsIkxp-5" target="spOxDP0OLOX8C8WsIkxp-1">
          <mxGeometry relative="1" as="geometry" />
        </mxCell>
        <mxCell id="spOxDP0OLOX8C8WsIkxp-5" value="&lt;font style=&quot;font-size: 16px&quot;&gt;设备&lt;/font&gt;" style="rounded=0;whiteSpace=wrap;html=1;" vertex="1" parent="1">
          <mxGeometry x="50" y="480" width="120" height="60" as="geometry" />
        </mxCell>
        <mxCell id="spOxDP0OLOX8C8WsIkxp-6" value="&lt;font style=&quot;font-size: 16px&quot;&gt;运营商&lt;/font&gt;" style="rounded=0;whiteSpace=wrap;html=1;" vertex="1" parent="1">
          <mxGeometry x="827" y="240" width="120" height="60" as="geometry" />
        </mxCell>
        <mxCell id="spOxDP0OLOX8C8WsIkxp-7" value="&lt;font style=&quot;font-size: 16px&quot;&gt;报警处理员&lt;/font&gt;" style="rounded=0;whiteSpace=wrap;html=1;" vertex="1" parent="1">
          <mxGeometry x="840" y="360" width="120" height="60" as="geometry" />
        </mxCell>
        <mxCell id="spOxDP0OLOX8C8WsIkxp-8" value="&lt;font style=&quot;font-size: 16px&quot;&gt;路网超速报警&lt;br&gt;反馈处理员&lt;/font&gt;" style="rounded=0;whiteSpace=wrap;html=1;" vertex="1" parent="1">
          <mxGeometry x="827" y="480" width="120" height="60" as="geometry" />
        </mxCell>
        <mxCell id="spOxDP0OLOX8C8WsIkxp-9" style="edgeStyle=orthogonalEdgeStyle;curved=1;orthogonalLoop=1;jettySize=auto;html=1;exitX=0;exitY=0.75;exitDx=0;exitDy=0;entryX=0.664;entryY=0.029;entryDx=0;entryDy=0;entryPerimeter=0;" edge="1" parent="1" source="spOxDP0OLOX8C8WsIkxp-11" target="spOxDP0OLOX8C8WsIkxp-1">
          <mxGeometry relative="1" as="geometry" />
        </mxCell>
        <mxCell id="spOxDP0OLOX8C8WsIkxp-10" style="edgeStyle=orthogonalEdgeStyle;curved=1;orthogonalLoop=1;jettySize=auto;html=1;exitX=0.25;exitY=1;exitDx=0;exitDy=0;entryX=0.812;entryY=0.1;entryDx=0;entryDy=0;entryPerimeter=0;" edge="1" parent="1" source="spOxDP0OLOX8C8WsIkxp-11" target="spOxDP0OLOX8C8WsIkxp-1">
          <mxGeometry relative="1" as="geometry" />
        </mxCell>
        <mxCell id="spOxDP0OLOX8C8WsIkxp-11" value="&lt;font style=&quot;font-size: 16px&quot;&gt;企业&lt;/font&gt;" style="rounded=0;whiteSpace=wrap;html=1;" vertex="1" parent="1">
          <mxGeometry x="660" y="140" width="120" height="60" as="geometry" />
        </mxCell>
        <mxCell id="spOxDP0OLOX8C8WsIkxp-12" value="&lt;span style=&quot;font-size: 16px&quot;&gt;报警明细核查员&lt;/span&gt;" style="rounded=0;whiteSpace=wrap;html=1;" vertex="1" parent="1">
          <mxGeometry x="660" y="585" width="120" height="60" as="geometry" />
        </mxCell>
      </root>
    </mxGraphModel>
  </diagram>
</mxfile>
